<?xml version="1.0" encoding="utf-8"?>
<!-- Generator: Adobe Illustrator 16.0.0, SVG Export Plug-In . SVG Version: 6.00 Build 0)  -->
<!DOCTYPE svg PUBLIC "-//W3C//DTD SVG 1.1//EN" "http://www.w3.org/Graphics/SVG/1.1/DTD/svg11.dtd">
<svg version="1.1" id="Layer_1" xmlns="http://www.w3.org/2000/svg" xmlns:xlink="http://www.w3.org/1999/xlink" x="0px" y="0px"
	 width="160px" height="34px" viewBox="0 0 160 34" enable-background="new 0 0 160 34" xml:space="preserve">
<g>
	<g>
		<polygon fill="#4484CE" stroke="#4484CE" stroke-width="1.25" points="7.287,17.001 13.062,27.146 9.894,32.525 1,17.001 
			1,17.001 9.894,1.474 13.062,6.853 		"/>
	</g>
	<g>
		<polygon fill="#4484CE" stroke="#4484CE" stroke-width="0.7" points="18.755,13.77 20.799,10.154 25.019,17.373 20.823,17.373 		
			"/>
	</g>
	<g>
		<polygon fill="#4484CE" stroke="#4484CE" stroke-width="0.7" points="12.915,17.568 14.959,13.953 19.177,21.171 14.981,21.171 		
			"/>
	</g>
	<g>
		<polygon fill="#4484CE" stroke="#4484CE" stroke-width="1.25" points="30.783,17.001 25.007,27.146 28.175,32.525 37.07,17.001 
			37.07,17.001 28.175,1.474 25.007,6.853 		"/>
	</g>
</g>
<g>
	<path fill="#4484CE" d="M47.733,20.361c-0.72-0.404-1.285-0.965-1.696-1.684c-0.411-0.72-0.617-1.535-0.617-2.444
		c0-0.91,0.206-1.725,0.617-2.444c0.411-0.719,0.977-1.28,1.696-1.684c0.719-0.403,1.531-0.604,2.436-0.604
		c0.79,0,1.5,0.147,2.134,0.442c0.633,0.294,1.16,0.719,1.579,1.274l-1.554,1.482c-0.56-0.71-1.238-1.066-2.035-1.066
		c-0.469,0-0.886,0.108-1.252,0.325c-0.366,0.217-0.649,0.522-0.851,0.917c-0.202,0.395-0.302,0.848-0.302,1.359
		s0.101,0.964,0.302,1.358s0.485,0.699,0.851,0.916c0.366,0.217,0.784,0.325,1.252,0.325c0.797,0,1.476-0.354,2.035-1.065
		l1.554,1.481c-0.419,0.555-0.946,0.979-1.579,1.274s-1.344,0.441-2.134,0.441C49.264,20.965,48.452,20.764,47.733,20.361z"/>
	<path fill="#4484CE" d="M60.604,19.016h-3.651l-0.679,1.768h-2.492l3.812-9.1H60l3.824,9.1h-2.541L60.604,19.016z M59.889,17.117
		l-1.11-2.912l-1.11,2.912H59.889z"/>
	<path fill="#4484CE" d="M71.447,18.795v1.988h-6.933v-9.1h6.772v1.989h-4.354v1.534h3.836v1.924h-3.836v1.665H71.447z"/>
	<path fill="#4484CE" d="M72.804,11.683h2.442v7.059h4.12v2.041h-6.563V11.683z"/>
	<path fill="#4484CE" d="M81.235,19.86c-0.711-0.737-1.067-1.781-1.067-3.133v-5.044h2.442v4.966c0,1.456,0.547,2.184,1.641,2.184
		c1.086,0,1.629-0.728,1.629-2.184v-4.966h2.404v5.044c0,1.352-0.355,2.396-1.066,3.133s-1.709,1.104-2.992,1.104
		S81.946,20.598,81.235,19.86z"/>
	<path fill="#4484CE" d="M97.732,20.783l-0.024-4.823l-2.221,3.927h-1.085l-2.208-3.796v4.693h-2.258v-9.1h2.011l3.034,5.252
		l2.961-5.252h2.011l0.024,9.1H97.732z"/>
	<path fill="#4484CE" d="M106.361,20.568c-0.604-0.212-1.079-0.487-1.425-0.825l0.456-1.015c0.329,0.313,0.751,0.566,1.265,0.762
		c0.514,0.194,1.042,0.292,1.585,0.292c0.716,0,1.25-0.128,1.604-0.384s0.53-0.596,0.53-1.02c0-0.313-0.097-0.566-0.29-0.762
		c-0.193-0.194-0.432-0.344-0.715-0.448c-0.284-0.104-0.685-0.221-1.203-0.351c-0.649-0.165-1.174-0.33-1.572-0.494
		c-0.399-0.165-0.74-0.418-1.024-0.761c-0.283-0.342-0.425-0.804-0.425-1.384c0-0.485,0.121-0.923,0.363-1.313
		c0.243-0.39,0.61-0.702,1.104-0.936c0.493-0.234,1.105-0.351,1.838-0.351c0.51,0,1.012,0.069,1.505,0.208s0.917,0.338,1.271,0.598
		l-0.407,1.04c-0.362-0.243-0.748-0.427-1.159-0.553c-0.412-0.125-0.814-0.188-1.209-0.188c-0.699,0-1.224,0.135-1.573,0.403
		s-0.524,0.615-0.524,1.04c0,0.312,0.1,0.565,0.297,0.76s0.441,0.347,0.733,0.455s0.688,0.223,1.19,0.344
		c0.649,0.165,1.172,0.33,1.566,0.494s0.734,0.416,1.018,0.754c0.284,0.338,0.426,0.793,0.426,1.366c0,0.477-0.123,0.912-0.37,1.307
		c-0.247,0.394-0.621,0.705-1.122,0.936c-0.502,0.229-1.119,0.344-1.851,0.344C107.593,20.887,106.966,20.781,106.361,20.568z"/>
	<path fill="#4484CE" d="M114.909,20.283c-0.694-0.403-1.239-0.958-1.634-1.664c-0.396-0.707-0.593-1.502-0.593-2.386
		c0-0.884,0.197-1.679,0.593-2.386c0.395-0.706,0.941-1.261,1.641-1.664c0.698-0.403,1.479-0.604,2.343-0.604
		c0.675,0,1.291,0.119,1.851,0.357c0.56,0.239,1.036,0.592,1.431,1.06l-0.802,0.819c-0.649-0.72-1.46-1.079-2.43-1.079
		c-0.642,0-1.222,0.151-1.739,0.455c-0.519,0.303-0.923,0.721-1.215,1.254c-0.292,0.533-0.438,1.129-0.438,1.788
		s0.146,1.254,0.438,1.787c0.292,0.533,0.696,0.952,1.215,1.255c0.518,0.303,1.098,0.455,1.739,0.455
		c0.962,0,1.772-0.364,2.43-1.092l0.802,0.818c-0.395,0.469-0.874,0.824-1.437,1.066c-0.563,0.242-1.183,0.363-1.856,0.363
		C116.384,20.887,115.604,20.686,114.909,20.283z"/>
	<path fill="#4484CE" d="M127.596,18.508h-4.589l-0.95,2.275h-1.271l3.91-9.1h1.222l3.923,9.1h-1.296L127.596,18.508z
		 M127.164,17.468l-1.863-4.459l-1.862,4.459H127.164z"/>
	<path fill="#4484CE" d="M138.549,11.683v9.1h-1.012l-5.181-6.786v6.786h-1.233v-9.1h1.012l5.181,6.786v-6.786H138.549z"/>
</g>
</svg>
